<svg xmlns="http://www.w3.org/2000/svg" xmlns:xlink="http://www.w3.org/1999/xlink" width="500" zoomAndPan="magnify" viewBox="0 0 375 374.999991" height="500" preserveAspectRatio="xMidYMid meet" version="1.0"><defs><g/><clipPath id="c1f839394f"><path d="M 143 120 L 171 120 L 171 137 L 143 137 Z M 143 120 " clip-rule="nonzero"/></clipPath><clipPath id="c3c7851cb7"><path d="M 203 138.875 L 174.769531 223.542969 L 112.160156 202.664062 L 140.390625 117.996094 Z M 203 138.875 " clip-rule="nonzero"/></clipPath><clipPath id="dda594e1c9"><path d="M 203 138.875 L 174.769531 223.542969 L 112.160156 202.664062 L 140.390625 117.996094 Z M 203 138.875 " clip-rule="nonzero"/></clipPath><clipPath id="d18ea931a9"><path d="M 135 150 L 157 150 L 157 183 L 135 183 Z M 135 150 " clip-rule="nonzero"/></clipPath><clipPath id="323f51447b"><path d="M 203 138.875 L 174.769531 223.542969 L 112.160156 202.664062 L 140.390625 117.996094 Z M 203 138.875 " clip-rule="nonzero"/></clipPath><clipPath id="fb2dc9d1fc"><path d="M 203 138.875 L 174.769531 223.542969 L 112.160156 202.664062 L 140.390625 117.996094 Z M 203 138.875 " clip-rule="nonzero"/></clipPath><clipPath id="f2a52416ae"><path d="M 118 196 L 147 196 L 147 213 L 118 213 Z M 118 196 " clip-rule="nonzero"/></clipPath><clipPath id="633e4b72dc"><path d="M 203 138.875 L 174.769531 223.542969 L 112.160156 202.664062 L 140.390625 117.996094 Z M 203 138.875 " clip-rule="nonzero"/></clipPath><clipPath id="677b9ef742"><path d="M 203 138.875 L 174.769531 223.542969 L 112.160156 202.664062 L 140.390625 117.996094 Z M 203 138.875 " clip-rule="nonzero"/></clipPath><clipPath id="4d3de0a8b2"><path d="M 132 129 L 176 129 L 176 156 L 132 156 Z M 132 129 " clip-rule="nonzero"/></clipPath><clipPath id="13ebb7ac73"><path d="M 203 138.875 L 174.769531 223.542969 L 112.160156 202.664062 L 140.390625 117.996094 Z M 203 138.875 " clip-rule="nonzero"/></clipPath><clipPath id="06719ef2ca"><path d="M 203 138.875 L 174.769531 223.542969 L 112.160156 202.664062 L 140.390625 117.996094 Z M 203 138.875 " clip-rule="nonzero"/></clipPath><clipPath id="a3a379b4cc"><path d="M 116 177 L 160 177 L 160 204 L 116 204 Z M 116 177 " clip-rule="nonzero"/></clipPath><clipPath id="082180a1ac"><path d="M 203 138.875 L 174.769531 223.542969 L 112.160156 202.664062 L 140.390625 117.996094 Z M 203 138.875 " clip-rule="nonzero"/></clipPath><clipPath id="6884d26705"><path d="M 203 138.875 L 174.769531 223.542969 L 112.160156 202.664062 L 140.390625 117.996094 Z M 203 138.875 " clip-rule="nonzero"/></clipPath><clipPath id="7a1c01b454"><path d="M 139.546875 136.46875 L 224.296875 136.46875 L 224.296875 219.71875 L 139.546875 219.71875 Z M 139.546875 136.46875 " clip-rule="nonzero"/></clipPath></defs><g clip-path="url(#c1f839394f)"><g clip-path="url(#c3c7851cb7)"><g clip-path="url(#dda594e1c9)"><path fill="#76042b" d="M 168.695312 136.84375 L 170.578125 131.199219 C 171.519531 128.375 169.675781 127.761719 168.699219 127.4375 L 148.957031 120.855469 C 147.980469 120.527344 146.136719 119.914062 145.195312 122.734375 L 143.3125 128.378906 Z M 168.695312 136.84375 " fill-opacity="1" fill-rule="nonzero"/></g></g></g><g clip-path="url(#d18ea931a9)"><g clip-path="url(#323f51447b)"><g clip-path="url(#fb2dc9d1fc)"><path fill="#76042b" d="M 156.46875 154.71875 L 147.058594 182.941406 L 135.777344 179.179688 L 145.1875 150.957031 Z M 156.46875 154.71875 " fill-opacity="1" fill-rule="nonzero"/></g></g></g><g clip-path="url(#f2a52416ae)"><g clip-path="url(#633e4b72dc)"><g clip-path="url(#677b9ef742)"><path fill="#76042b" d="M 144.230469 210.222656 L 146.113281 204.578125 L 120.730469 196.113281 L 118.847656 201.757812 C 117.90625 204.582031 119.75 205.195312 120.726562 205.523438 L 140.46875 212.105469 C 141.445312 212.429688 143.289062 213.042969 144.230469 210.222656 Z M 144.230469 210.222656 " fill-opacity="1" fill-rule="nonzero"/></g></g></g><g clip-path="url(#4d3de0a8b2)"><g clip-path="url(#13ebb7ac73)"><g clip-path="url(#06719ef2ca)"><path fill="#76042b" d="M 156.703125 151.660156 L 168.691406 155.65625 C 169.667969 155.984375 171.511719 156.597656 172.453125 153.777344 L 175.273438 145.308594 C 176.214844 142.488281 174.371094 141.871094 173.394531 141.546875 L 139.550781 130.261719 C 138.578125 129.9375 136.734375 129.320312 135.792969 132.144531 L 132.96875 140.609375 C 132.027344 143.433594 133.871094 144.046875 134.847656 144.375 Z M 156.703125 151.660156 " fill-opacity="1" fill-rule="nonzero"/></g></g></g><g clip-path="url(#a3a379b4cc)"><g clip-path="url(#082180a1ac)"><g clip-path="url(#6884d26705)"><path fill="#76042b" d="M 123.082031 193.761719 L 152.695312 203.636719 C 153.667969 203.960938 155.515625 204.578125 156.453125 201.753906 L 159.351562 193.0625 C 160.21875 190.464844 158.375 189.851562 157.398438 189.523438 L 123.554688 178.242188 C 122.578125 177.914062 120.734375 177.300781 119.871094 179.898438 L 116.972656 188.589844 C 116.03125 191.410156 117.875 192.027344 118.851562 192.351562 Z M 123.082031 193.761719 " fill-opacity="1" fill-rule="nonzero"/></g></g></g><g clip-path="url(#7a1c01b454)"><path fill="#ce1755" d="M 197.117188 174.8125 C 200.414062 172.398438 202.613281 169.40625 203.726562 165.839844 L 203.792969 165.605469 C 205.078125 161.480469 204.742188 158.355469 202.761719 156.210938 C 200.785156 154.0625 197.488281 153 192.890625 153 L 160.457031 153 C 178.929688 149.316406 164.429688 136.488281 178.441406 136.488281 L 199.621094 136.488281 C 204.605469 136.488281 208.847656 137.183594 212.347656 138.566406 C 215.828125 139.953125 218.550781 141.914062 220.496094 144.449219 C 222.4375 146.984375 223.585938 150.007812 223.941406 153.539062 C 224.296875 157.070312 223.808594 160.976562 222.472656 165.25 L 222.40625 165.488281 C 220.898438 170.320312 217.671875 177.449219 214.796875 181.101562 C 189.578125 212.953125 158.816406 178.242188 139.546875 219.695312 C 153.441406 160.316406 174.164062 191.679688 197.117188 174.8125 Z M 197.117188 174.8125 " fill-opacity="1" fill-rule="nonzero"/></g><g fill="#0057ff" fill-opacity="0.302"><g transform="translate(115.781636, 252.434031)"><g><path d="M 7.5625 -13.03125 L 7.5625 -18.984375 L 4.828125 -18.984375 L 4.828125 -11.578125 Z M 4.828125 0 L 1.28125 0 L 1.28125 -22.359375 L 8.203125 -22.359375 C 8.992188 -22.359375 9.671875 -22.0625 10.234375 -21.46875 C 10.804688 -20.882812 11.09375 -20.160156 11.09375 -19.296875 L 11.09375 -10.84375 L 4.828125 -7.625 Z M 4.828125 0 "/></g></g></g><g fill="#0057ff" fill-opacity="0.302"><g transform="translate(127.847539, 252.434031)"><g><path d="M 9.8125 -18.984375 L 4.828125 -18.984375 L 4.828125 -12.96875 L 9.8125 -15.53125 L 9.8125 -11.578125 L 4.828125 -9.015625 L 4.828125 -3.375 L 9.8125 -3.375 L 9.8125 0 L 1.28125 0 L 1.28125 -19.296875 C 1.28125 -20.160156 1.5625 -20.882812 2.125 -21.46875 C 2.695312 -22.0625 3.382812 -22.359375 4.1875 -22.359375 L 9.8125 -22.359375 Z M 9.8125 -18.984375 "/></g></g></g><g fill="#0057ff" fill-opacity="0.302"><g transform="translate(138.626411, 252.434031)"><g><path d="M 9.328125 0 L 5.625 -8.359375 L 4.828125 -7.953125 L 4.828125 0 L 1.28125 0 L 1.28125 -22.359375 L 8.203125 -22.359375 C 8.992188 -22.359375 9.671875 -22.0625 10.234375 -21.46875 C 10.804688 -20.882812 11.09375 -20.160156 11.09375 -19.296875 L 11.09375 -11.15625 L 8.75 -9.96875 L 13.1875 0 Z M 7.5625 -13.34375 L 7.5625 -18.984375 L 4.828125 -18.984375 L 4.828125 -11.90625 Z M 7.5625 -13.34375 "/></g></g></g><g fill="#0057ff" fill-opacity="0.302"><g transform="translate(151.014071, 252.434031)"><g><path d="M 4.828125 0 L 1.28125 0 L 1.28125 -19.296875 C 1.28125 -20.160156 1.5625 -20.882812 2.125 -21.46875 C 2.695312 -22.0625 3.382812 -22.359375 4.1875 -22.359375 L 9.8125 -22.359375 L 9.8125 -18.984375 L 4.828125 -18.984375 L 4.828125 -12.96875 L 9.8125 -15.53125 L 9.8125 -11.578125 L 4.828125 -9.015625 Z M 4.828125 0 "/></g></g></g><g fill="#0057ff" fill-opacity="0.302"><g transform="translate(161.310307, 252.434031)"><g><path d="M 11.09375 -19.296875 L 11.09375 -3.0625 C 11.09375 -2.195312 10.804688 -1.46875 10.234375 -0.875 C 9.671875 -0.289062 8.992188 0 8.203125 0 L 4.1875 0 C 3.382812 0 2.695312 -0.296875 2.125 -0.890625 C 1.5625 -1.492188 1.28125 -2.21875 1.28125 -3.0625 L 1.28125 -19.296875 C 1.28125 -20.160156 1.5625 -20.882812 2.125 -21.46875 C 2.695312 -22.0625 3.382812 -22.359375 4.1875 -22.359375 L 8.203125 -22.359375 C 8.992188 -22.359375 9.671875 -22.0625 10.234375 -21.46875 C 10.804688 -20.882812 11.09375 -20.160156 11.09375 -19.296875 Z M 7.5625 -3.375 L 7.5625 -18.984375 L 4.828125 -18.984375 L 4.828125 -3.375 Z M 7.5625 -3.375 "/></g></g></g><g fill="#0057ff" fill-opacity="0.302"><g transform="translate(173.697967, 252.434031)"><g><path d="M 9.328125 0 L 5.625 -8.359375 L 4.828125 -7.953125 L 4.828125 0 L 1.28125 0 L 1.28125 -22.359375 L 8.203125 -22.359375 C 8.992188 -22.359375 9.671875 -22.0625 10.234375 -21.46875 C 10.804688 -20.882812 11.09375 -20.160156 11.09375 -19.296875 L 11.09375 -11.15625 L 8.75 -9.96875 L 13.1875 0 Z M 7.5625 -13.34375 L 7.5625 -18.984375 L 4.828125 -18.984375 L 4.828125 -11.90625 Z M 7.5625 -13.34375 "/></g></g></g><g fill="#0057ff" fill-opacity="0.302"><g transform="translate(186.085631, 252.434031)"><g><path d="M 9.328125 -20.71875 C 9.453125 -21 9.632812 -21.253906 9.875 -21.484375 C 10.4375 -22.066406 11.113281 -22.359375 11.90625 -22.359375 L 14.484375 -22.359375 C 15.273438 -22.359375 15.953125 -22.054688 16.515625 -21.453125 C 17.085938 -20.859375 17.375 -20.140625 17.375 -19.296875 L 17.375 0 L 13.828125 0 L 13.828125 -18.984375 L 11.09375 -18.984375 L 11.09375 0 L 7.5625 0 L 7.5625 -18.984375 L 4.828125 -18.984375 L 4.828125 0 L 1.28125 0 L 1.28125 -19.296875 C 1.28125 -20.160156 1.5625 -20.882812 2.125 -21.46875 C 2.695312 -22.0625 3.382812 -22.359375 4.1875 -22.359375 L 6.75 -22.359375 C 7.550781 -22.359375 8.238281 -22.054688 8.8125 -21.453125 C 9.03125 -21.222656 9.203125 -20.976562 9.328125 -20.71875 Z M 9.328125 -20.71875 "/></g></g></g><g fill="#0057ff" fill-opacity="0.302"><g transform="translate(204.747558, 252.434031)"><g><path d="M 1.28125 0 L 1.28125 -19.296875 C 1.28125 -20.160156 1.5625 -20.882812 2.125 -21.46875 C 2.695312 -22.0625 3.382812 -22.359375 4.1875 -22.359375 L 8.203125 -22.359375 C 8.992188 -22.359375 9.671875 -22.0625 10.234375 -21.46875 C 10.804688 -20.882812 11.09375 -20.160156 11.09375 -19.296875 L 11.09375 0 L 7.5625 0 L 7.5625 -9.484375 L 4.828125 -8.046875 L 4.828125 0 Z M 4.828125 -12 L 7.5625 -13.453125 L 7.5625 -18.984375 L 4.828125 -18.984375 Z M 4.828125 -12 "/></g></g></g><g fill="#0057ff" fill-opacity="0.302"><g transform="translate(217.135218, 252.434031)"><g><path d="M 4.828125 0 L 1.28125 0 L 1.28125 -22.359375 L 4.828125 -22.359375 L 4.828125 -20.71875 C 4.953125 -21 5.125 -21.253906 5.34375 -21.484375 C 5.914062 -22.066406 6.601562 -22.359375 7.40625 -22.359375 L 8.203125 -22.359375 C 8.992188 -22.359375 9.671875 -22.0625 10.234375 -21.46875 C 10.804688 -20.882812 11.09375 -20.160156 11.09375 -19.296875 L 11.09375 0 L 7.5625 0 L 7.5625 -18.984375 L 4.828125 -18.984375 Z M 4.828125 0 "/></g></g></g><g fill="#0057ff" fill-opacity="0.302"><g transform="translate(229.522878, 252.434031)"><g><path d="M 7.5625 -6.109375 L 11.09375 -7.875 L 11.09375 -3.0625 C 11.09375 -2.195312 10.804688 -1.46875 10.234375 -0.875 C 9.671875 -0.289062 8.992188 0 8.203125 0 L 4.1875 0 C 3.382812 0 2.695312 -0.296875 2.125 -0.890625 C 1.5625 -1.492188 1.28125 -2.21875 1.28125 -3.0625 L 1.28125 -19.296875 C 1.28125 -20.160156 1.5625 -20.882812 2.125 -21.46875 C 2.695312 -22.0625 3.382812 -22.359375 4.1875 -22.359375 L 8.203125 -22.359375 C 8.992188 -22.359375 9.671875 -22.0625 10.234375 -21.46875 C 10.804688 -20.882812 11.09375 -20.160156 11.09375 -19.296875 L 11.09375 -17.375 L 7.5625 -15.609375 L 7.5625 -18.984375 L 4.828125 -18.984375 L 4.828125 -3.375 L 7.5625 -3.375 Z M 7.5625 -6.109375 "/></g></g></g><g fill="#0057ff" fill-opacity="0.302"><g transform="translate(241.588781, 252.434031)"><g><path d="M 9.8125 -18.984375 L 4.828125 -18.984375 L 4.828125 -12.96875 L 9.8125 -15.53125 L 9.8125 -11.578125 L 4.828125 -9.015625 L 4.828125 -3.375 L 9.8125 -3.375 L 9.8125 0 L 1.28125 0 L 1.28125 -19.296875 C 1.28125 -20.160156 1.5625 -20.882812 2.125 -21.46875 C 2.695312 -22.0625 3.382812 -22.359375 4.1875 -22.359375 L 9.8125 -22.359375 Z M 9.8125 -18.984375 "/></g></g></g><g fill="#0057ff" fill-opacity="0.502"><g transform="translate(114.721609, 251.635251)"><g><path d="M 7.5625 -13.03125 L 7.5625 -18.984375 L 4.828125 -18.984375 L 4.828125 -11.578125 Z M 4.828125 0 L 1.28125 0 L 1.28125 -22.359375 L 8.203125 -22.359375 C 8.992188 -22.359375 9.671875 -22.0625 10.234375 -21.46875 C 10.804688 -20.882812 11.09375 -20.160156 11.09375 -19.296875 L 11.09375 -10.84375 L 4.828125 -7.625 Z M 4.828125 0 "/></g></g></g><g fill="#0057ff" fill-opacity="0.502"><g transform="translate(126.787512, 251.635251)"><g><path d="M 9.8125 -18.984375 L 4.828125 -18.984375 L 4.828125 -12.96875 L 9.8125 -15.53125 L 9.8125 -11.578125 L 4.828125 -9.015625 L 4.828125 -3.375 L 9.8125 -3.375 L 9.8125 0 L 1.28125 0 L 1.28125 -19.296875 C 1.28125 -20.160156 1.5625 -20.882812 2.125 -21.46875 C 2.695312 -22.0625 3.382812 -22.359375 4.1875 -22.359375 L 9.8125 -22.359375 Z M 9.8125 -18.984375 "/></g></g></g><g fill="#0057ff" fill-opacity="0.502"><g transform="translate(137.566384, 251.635251)"><g><path d="M 9.328125 0 L 5.625 -8.359375 L 4.828125 -7.953125 L 4.828125 0 L 1.28125 0 L 1.28125 -22.359375 L 8.203125 -22.359375 C 8.992188 -22.359375 9.671875 -22.0625 10.234375 -21.46875 C 10.804688 -20.882812 11.09375 -20.160156 11.09375 -19.296875 L 11.09375 -11.15625 L 8.75 -9.96875 L 13.1875 0 Z M 7.5625 -13.34375 L 7.5625 -18.984375 L 4.828125 -18.984375 L 4.828125 -11.90625 Z M 7.5625 -13.34375 "/></g></g></g><g fill="#0057ff" fill-opacity="0.502"><g transform="translate(149.954044, 251.635251)"><g><path d="M 4.828125 0 L 1.28125 0 L 1.28125 -19.296875 C 1.28125 -20.160156 1.5625 -20.882812 2.125 -21.46875 C 2.695312 -22.0625 3.382812 -22.359375 4.1875 -22.359375 L 9.8125 -22.359375 L 9.8125 -18.984375 L 4.828125 -18.984375 L 4.828125 -12.96875 L 9.8125 -15.53125 L 9.8125 -11.578125 L 4.828125 -9.015625 Z M 4.828125 0 "/></g></g></g><g fill="#0057ff" fill-opacity="0.502"><g transform="translate(160.25028, 251.635251)"><g><path d="M 11.09375 -19.296875 L 11.09375 -3.0625 C 11.09375 -2.195312 10.804688 -1.46875 10.234375 -0.875 C 9.671875 -0.289062 8.992188 0 8.203125 0 L 4.1875 0 C 3.382812 0 2.695312 -0.296875 2.125 -0.890625 C 1.5625 -1.492188 1.28125 -2.21875 1.28125 -3.0625 L 1.28125 -19.296875 C 1.28125 -20.160156 1.5625 -20.882812 2.125 -21.46875 C 2.695312 -22.0625 3.382812 -22.359375 4.1875 -22.359375 L 8.203125 -22.359375 C 8.992188 -22.359375 9.671875 -22.0625 10.234375 -21.46875 C 10.804688 -20.882812 11.09375 -20.160156 11.09375 -19.296875 Z M 7.5625 -3.375 L 7.5625 -18.984375 L 4.828125 -18.984375 L 4.828125 -3.375 Z M 7.5625 -3.375 "/></g></g></g><g fill="#0057ff" fill-opacity="0.502"><g transform="translate(172.63794, 251.635251)"><g><path d="M 9.328125 0 L 5.625 -8.359375 L 4.828125 -7.953125 L 4.828125 0 L 1.28125 0 L 1.28125 -22.359375 L 8.203125 -22.359375 C 8.992188 -22.359375 9.671875 -22.0625 10.234375 -21.46875 C 10.804688 -20.882812 11.09375 -20.160156 11.09375 -19.296875 L 11.09375 -11.15625 L 8.75 -9.96875 L 13.1875 0 Z M 7.5625 -13.34375 L 7.5625 -18.984375 L 4.828125 -18.984375 L 4.828125 -11.90625 Z M 7.5625 -13.34375 "/></g></g></g><g fill="#0057ff" fill-opacity="0.502"><g transform="translate(185.025604, 251.635251)"><g><path d="M 9.328125 -20.71875 C 9.453125 -21 9.632812 -21.253906 9.875 -21.484375 C 10.4375 -22.066406 11.113281 -22.359375 11.90625 -22.359375 L 14.484375 -22.359375 C 15.273438 -22.359375 15.953125 -22.054688 16.515625 -21.453125 C 17.085938 -20.859375 17.375 -20.140625 17.375 -19.296875 L 17.375 0 L 13.828125 0 L 13.828125 -18.984375 L 11.09375 -18.984375 L 11.09375 0 L 7.5625 0 L 7.5625 -18.984375 L 4.828125 -18.984375 L 4.828125 0 L 1.28125 0 L 1.28125 -19.296875 C 1.28125 -20.160156 1.5625 -20.882812 2.125 -21.46875 C 2.695312 -22.0625 3.382812 -22.359375 4.1875 -22.359375 L 6.75 -22.359375 C 7.550781 -22.359375 8.238281 -22.054688 8.8125 -21.453125 C 9.03125 -21.222656 9.203125 -20.976562 9.328125 -20.71875 Z M 9.328125 -20.71875 "/></g></g></g><g fill="#0057ff" fill-opacity="0.502"><g transform="translate(203.687531, 251.635251)"><g><path d="M 1.28125 0 L 1.28125 -19.296875 C 1.28125 -20.160156 1.5625 -20.882812 2.125 -21.46875 C 2.695312 -22.0625 3.382812 -22.359375 4.1875 -22.359375 L 8.203125 -22.359375 C 8.992188 -22.359375 9.671875 -22.0625 10.234375 -21.46875 C 10.804688 -20.882812 11.09375 -20.160156 11.09375 -19.296875 L 11.09375 0 L 7.5625 0 L 7.5625 -9.484375 L 4.828125 -8.046875 L 4.828125 0 Z M 4.828125 -12 L 7.5625 -13.453125 L 7.5625 -18.984375 L 4.828125 -18.984375 Z M 4.828125 -12 "/></g></g></g><g fill="#0057ff" fill-opacity="0.502"><g transform="translate(216.075191, 251.635251)"><g><path d="M 4.828125 0 L 1.28125 0 L 1.28125 -22.359375 L 4.828125 -22.359375 L 4.828125 -20.71875 C 4.953125 -21 5.125 -21.253906 5.34375 -21.484375 C 5.914062 -22.066406 6.601562 -22.359375 7.40625 -22.359375 L 8.203125 -22.359375 C 8.992188 -22.359375 9.671875 -22.0625 10.234375 -21.46875 C 10.804688 -20.882812 11.09375 -20.160156 11.09375 -19.296875 L 11.09375 0 L 7.5625 0 L 7.5625 -18.984375 L 4.828125 -18.984375 Z M 4.828125 0 "/></g></g></g><g fill="#0057ff" fill-opacity="0.502"><g transform="translate(228.462851, 251.635251)"><g><path d="M 7.5625 -6.109375 L 11.09375 -7.875 L 11.09375 -3.0625 C 11.09375 -2.195312 10.804688 -1.46875 10.234375 -0.875 C 9.671875 -0.289062 8.992188 0 8.203125 0 L 4.1875 0 C 3.382812 0 2.695312 -0.296875 2.125 -0.890625 C 1.5625 -1.492188 1.28125 -2.21875 1.28125 -3.0625 L 1.28125 -19.296875 C 1.28125 -20.160156 1.5625 -20.882812 2.125 -21.46875 C 2.695312 -22.0625 3.382812 -22.359375 4.1875 -22.359375 L 8.203125 -22.359375 C 8.992188 -22.359375 9.671875 -22.0625 10.234375 -21.46875 C 10.804688 -20.882812 11.09375 -20.160156 11.09375 -19.296875 L 11.09375 -17.375 L 7.5625 -15.609375 L 7.5625 -18.984375 L 4.828125 -18.984375 L 4.828125 -3.375 L 7.5625 -3.375 Z M 7.5625 -6.109375 "/></g></g></g><g fill="#0057ff" fill-opacity="0.502"><g transform="translate(240.528754, 251.635251)"><g><path d="M 9.8125 -18.984375 L 4.828125 -18.984375 L 4.828125 -12.96875 L 9.8125 -15.53125 L 9.8125 -11.578125 L 4.828125 -9.015625 L 4.828125 -3.375 L 9.8125 -3.375 L 9.8125 0 L 1.28125 0 L 1.28125 -19.296875 C 1.28125 -20.160156 1.5625 -20.882812 2.125 -21.46875 C 2.695312 -22.0625 3.382812 -22.359375 4.1875 -22.359375 L 9.8125 -22.359375 Z M 9.8125 -18.984375 "/></g></g></g><g fill="#f43a3f" fill-opacity="1"><g transform="translate(113.661582, 250.836456)"><g><path d="M 7.5625 -13.03125 L 7.5625 -18.984375 L 4.828125 -18.984375 L 4.828125 -11.578125 Z M 4.828125 0 L 1.28125 0 L 1.28125 -22.359375 L 8.203125 -22.359375 C 8.992188 -22.359375 9.671875 -22.0625 10.234375 -21.46875 C 10.804688 -20.882812 11.09375 -20.160156 11.09375 -19.296875 L 11.09375 -10.84375 L 4.828125 -7.625 Z M 4.828125 0 "/></g></g></g><g fill="#f43a3f" fill-opacity="1"><g transform="translate(125.727484, 250.836456)"><g><path d="M 9.8125 -18.984375 L 4.828125 -18.984375 L 4.828125 -12.96875 L 9.8125 -15.53125 L 9.8125 -11.578125 L 4.828125 -9.015625 L 4.828125 -3.375 L 9.8125 -3.375 L 9.8125 0 L 1.28125 0 L 1.28125 -19.296875 C 1.28125 -20.160156 1.5625 -20.882812 2.125 -21.46875 C 2.695312 -22.0625 3.382812 -22.359375 4.1875 -22.359375 L 9.8125 -22.359375 Z M 9.8125 -18.984375 "/></g></g></g><g fill="#f43a3f" fill-opacity="1"><g transform="translate(136.506357, 250.836456)"><g><path d="M 9.328125 0 L 5.625 -8.359375 L 4.828125 -7.953125 L 4.828125 0 L 1.28125 0 L 1.28125 -22.359375 L 8.203125 -22.359375 C 8.992188 -22.359375 9.671875 -22.0625 10.234375 -21.46875 C 10.804688 -20.882812 11.09375 -20.160156 11.09375 -19.296875 L 11.09375 -11.15625 L 8.75 -9.96875 L 13.1875 0 Z M 7.5625 -13.34375 L 7.5625 -18.984375 L 4.828125 -18.984375 L 4.828125 -11.90625 Z M 7.5625 -13.34375 "/></g></g></g><g fill="#f43a3f" fill-opacity="1"><g transform="translate(148.894017, 250.836456)"><g><path d="M 4.828125 0 L 1.28125 0 L 1.28125 -19.296875 C 1.28125 -20.160156 1.5625 -20.882812 2.125 -21.46875 C 2.695312 -22.0625 3.382812 -22.359375 4.1875 -22.359375 L 9.8125 -22.359375 L 9.8125 -18.984375 L 4.828125 -18.984375 L 4.828125 -12.96875 L 9.8125 -15.53125 L 9.8125 -11.578125 L 4.828125 -9.015625 Z M 4.828125 0 "/></g></g></g><g fill="#f43a3f" fill-opacity="1"><g transform="translate(159.190253, 250.836456)"><g><path d="M 11.09375 -19.296875 L 11.09375 -3.0625 C 11.09375 -2.195312 10.804688 -1.46875 10.234375 -0.875 C 9.671875 -0.289062 8.992188 0 8.203125 0 L 4.1875 0 C 3.382812 0 2.695312 -0.296875 2.125 -0.890625 C 1.5625 -1.492188 1.28125 -2.21875 1.28125 -3.0625 L 1.28125 -19.296875 C 1.28125 -20.160156 1.5625 -20.882812 2.125 -21.46875 C 2.695312 -22.0625 3.382812 -22.359375 4.1875 -22.359375 L 8.203125 -22.359375 C 8.992188 -22.359375 9.671875 -22.0625 10.234375 -21.46875 C 10.804688 -20.882812 11.09375 -20.160156 11.09375 -19.296875 Z M 7.5625 -3.375 L 7.5625 -18.984375 L 4.828125 -18.984375 L 4.828125 -3.375 Z M 7.5625 -3.375 "/></g></g></g><g fill="#f43a3f" fill-opacity="1"><g transform="translate(171.577913, 250.836456)"><g><path d="M 9.328125 0 L 5.625 -8.359375 L 4.828125 -7.953125 L 4.828125 0 L 1.28125 0 L 1.28125 -22.359375 L 8.203125 -22.359375 C 8.992188 -22.359375 9.671875 -22.0625 10.234375 -21.46875 C 10.804688 -20.882812 11.09375 -20.160156 11.09375 -19.296875 L 11.09375 -11.15625 L 8.75 -9.96875 L 13.1875 0 Z M 7.5625 -13.34375 L 7.5625 -18.984375 L 4.828125 -18.984375 L 4.828125 -11.90625 Z M 7.5625 -13.34375 "/></g></g></g><g fill="#f43a3f" fill-opacity="1"><g transform="translate(183.965577, 250.836456)"><g><path d="M 9.328125 -20.71875 C 9.453125 -21 9.632812 -21.253906 9.875 -21.484375 C 10.4375 -22.066406 11.113281 -22.359375 11.90625 -22.359375 L 14.484375 -22.359375 C 15.273438 -22.359375 15.953125 -22.054688 16.515625 -21.453125 C 17.085938 -20.859375 17.375 -20.140625 17.375 -19.296875 L 17.375 0 L 13.828125 0 L 13.828125 -18.984375 L 11.09375 -18.984375 L 11.09375 0 L 7.5625 0 L 7.5625 -18.984375 L 4.828125 -18.984375 L 4.828125 0 L 1.28125 0 L 1.28125 -19.296875 C 1.28125 -20.160156 1.5625 -20.882812 2.125 -21.46875 C 2.695312 -22.0625 3.382812 -22.359375 4.1875 -22.359375 L 6.75 -22.359375 C 7.550781 -22.359375 8.238281 -22.054688 8.8125 -21.453125 C 9.03125 -21.222656 9.203125 -20.976562 9.328125 -20.71875 Z M 9.328125 -20.71875 "/></g></g></g><g fill="#f43a3f" fill-opacity="1"><g transform="translate(202.627504, 250.836456)"><g><path d="M 1.28125 0 L 1.28125 -19.296875 C 1.28125 -20.160156 1.5625 -20.882812 2.125 -21.46875 C 2.695312 -22.0625 3.382812 -22.359375 4.1875 -22.359375 L 8.203125 -22.359375 C 8.992188 -22.359375 9.671875 -22.0625 10.234375 -21.46875 C 10.804688 -20.882812 11.09375 -20.160156 11.09375 -19.296875 L 11.09375 0 L 7.5625 0 L 7.5625 -9.484375 L 4.828125 -8.046875 L 4.828125 0 Z M 4.828125 -12 L 7.5625 -13.453125 L 7.5625 -18.984375 L 4.828125 -18.984375 Z M 4.828125 -12 "/></g></g></g><g fill="#f43a3f" fill-opacity="1"><g transform="translate(215.015164, 250.836456)"><g><path d="M 4.828125 0 L 1.28125 0 L 1.28125 -22.359375 L 4.828125 -22.359375 L 4.828125 -20.71875 C 4.953125 -21 5.125 -21.253906 5.34375 -21.484375 C 5.914062 -22.066406 6.601562 -22.359375 7.40625 -22.359375 L 8.203125 -22.359375 C 8.992188 -22.359375 9.671875 -22.0625 10.234375 -21.46875 C 10.804688 -20.882812 11.09375 -20.160156 11.09375 -19.296875 L 11.09375 0 L 7.5625 0 L 7.5625 -18.984375 L 4.828125 -18.984375 Z M 4.828125 0 "/></g></g></g><g fill="#f43a3f" fill-opacity="1"><g transform="translate(227.402824, 250.836456)"><g><path d="M 7.5625 -6.109375 L 11.09375 -7.875 L 11.09375 -3.0625 C 11.09375 -2.195312 10.804688 -1.46875 10.234375 -0.875 C 9.671875 -0.289062 8.992188 0 8.203125 0 L 4.1875 0 C 3.382812 0 2.695312 -0.296875 2.125 -0.890625 C 1.5625 -1.492188 1.28125 -2.21875 1.28125 -3.0625 L 1.28125 -19.296875 C 1.28125 -20.160156 1.5625 -20.882812 2.125 -21.46875 C 2.695312 -22.0625 3.382812 -22.359375 4.1875 -22.359375 L 8.203125 -22.359375 C 8.992188 -22.359375 9.671875 -22.0625 10.234375 -21.46875 C 10.804688 -20.882812 11.09375 -20.160156 11.09375 -19.296875 L 11.09375 -17.375 L 7.5625 -15.609375 L 7.5625 -18.984375 L 4.828125 -18.984375 L 4.828125 -3.375 L 7.5625 -3.375 Z M 7.5625 -6.109375 "/></g></g></g><g fill="#f43a3f" fill-opacity="1"><g transform="translate(239.468726, 250.836456)"><g><path d="M 9.8125 -18.984375 L 4.828125 -18.984375 L 4.828125 -12.96875 L 9.8125 -15.53125 L 9.8125 -11.578125 L 4.828125 -9.015625 L 4.828125 -3.375 L 9.8125 -3.375 L 9.8125 0 L 1.28125 0 L 1.28125 -19.296875 C 1.28125 -20.160156 1.5625 -20.882812 2.125 -21.46875 C 2.695312 -22.0625 3.382812 -22.359375 4.1875 -22.359375 L 9.8125 -22.359375 Z M 9.8125 -18.984375 "/></g></g></g><g fill="#0057ff" fill-opacity="0.302"><g transform="translate(184.073501, 284.530565)"><g/></g></g><g fill="#0057ff" fill-opacity="0.502"><g transform="translate(183.013474, 283.731785)"><g/></g></g><g fill="#f43a3f" fill-opacity="1"><g transform="translate(181.953446, 282.932991)"><g/></g></g><path stroke-linecap="butt" transform="matrix(0.205107, 0, 0, 0.205107, 199.685867, 270.612726)" fill="none" stroke-linejoin="miter" d="M 94.451647 -13.024009 L 85.157733 57.994441 L 102.450507 57.994441 L 106.183309 29.236635 L 128.94197 29.236635 L 130.941685 14.286385 L 108.183024 14.286385 L 109.820885 1.907196 L 137.150324 1.907196 L 139.054814 -13.024009 Z M 170.02183 -13.024009 L 152.710011 -13.024009 L 143.435142 57.994441 L 160.727916 57.994441 Z M 214.548817 1.907196 L 230.470358 1.907196 L 232.374848 -13.024009 L 183.219949 -13.024009 L 181.315458 1.907196 L 197.236999 1.907196 L 189.866621 57.994441 L 207.159394 57.994441 Z M 298.860611 -13.024009 L 282.462948 -13.024009 L 279.092 12.477119 L 277.815991 26.113271 L 263.341864 -13.024009 L 245.134935 -13.024009 L 235.841021 57.994441 L 252.219639 57.994441 L 255.514408 32.493314 L 256.866596 18.857162 L 271.359769 57.994441 L 289.566698 57.994441 Z M 314.782152 -13.024009 L 305.488238 57.994441 L 350.11045 57.994441 L 352.014941 43.063236 L 324.704547 43.063236 L 326.513813 29.236635 L 349.29152 29.236635 L 351.291235 14.286385 L 328.513528 14.286385 L 330.170435 1.907196 L 357.480829 1.907196 L 359.404364 -13.024009 Z M 390.276155 29.408039 C 399.912877 30.684048 401.645963 33.502694 401.28411 37.064091 L 401.188885 37.978246 C 400.827032 41.444419 398.17979 44.35829 392.27587 44.35829 L 391.361714 44.35829 C 385.438749 44.35829 382.810552 41.234925 383.800887 33.407469 L 366.508114 33.407469 L 366.29862 34.873927 C 364.222725 51.34777 373.154785 59.27045 390.447559 59.27045 C 407.18803 59.27045 417.224695 52.166701 418.691153 38.797177 L 418.862557 37.140271 C 420.38615 23.580298 413.663298 17.562108 398.446419 15.467169 C 389.076326 14.210205 387.533689 11.734367 387.895542 7.906342 L 387.971721 6.992186 C 388.352619 3.468879 391.26649 0.650233 396.2753 0.650233 L 397.189455 0.650233 C 403.569498 0.650233 405.378764 4.459214 404.27416 12.477119 L 421.585979 12.477119 L 421.852607 10.286955 C 423.871367 -5.920259 416.481944 -14.300018 398.732093 -14.300018 C 380.982241 -14.300018 371.783552 -5.72981 370.412319 6.820782 L 370.22187 8.477689 C 368.774457 21.29491 375.059276 27.408324 390.276155 29.408039 Z M 455.37164 29.408039 C 465.027407 30.684048 466.760493 33.502694 466.379595 37.064091 L 466.28437 37.978246 C 465.922517 41.444419 463.29432 44.35829 457.371355 44.35829 L 456.457199 44.35829 C 450.553279 44.35829 447.906037 41.234925 448.896372 33.407469 L 431.603598 33.407469 L 431.413149 34.873927 C 429.31821 51.34777 438.25027 59.27045 455.543044 59.27045 C 472.283515 59.27045 482.32018 52.166701 483.786638 38.797177 L 483.958042 37.140271 C 485.500679 23.580298 478.758783 17.562108 463.560949 15.467169 C 454.171811 14.210205 452.629174 11.734367 452.991027 7.906342 L 453.086251 6.992186 C 453.467149 3.468879 456.361975 0.650233 461.370785 0.650233 L 462.28494 0.650233 C 468.664983 0.650233 470.493294 4.459214 469.369645 12.477119 L 486.700508 12.477119 L 486.967137 10.286955 C 488.966852 -5.920259 481.577429 -14.300018 463.846622 -14.300018 C 446.077726 -14.300018 436.879037 -5.72981 435.526849 6.820782 L 435.317355 8.477689 C 433.869942 21.29491 440.173806 27.408324 455.37164 29.408039 Z M 455.37164 29.408039 " stroke="#38b6ff" stroke-width="2.61811" stroke-opacity="1" stroke-miterlimit="4"/></svg>